<?xml version="1.0" encoding="iso-8859-1"?>
<!-- Generator: Adobe Illustrator 19.0.0, SVG Export Plug-In . SVG Version: 6.00 Build 0)  -->
<svg version="1.1" id="Capa_1" xmlns="http://www.w3.org/2000/svg" xmlns:xlink="http://www.w3.org/1999/xlink" x="0px" y="0px"
	 viewBox="0 0 512 512" style="enable-background:new 0 0 512 512;" xml:space="preserve">
<g>
	<g>
		<path d="M220.617,115.694c-13.674,0-24.798,11.125-24.798,24.798c0,13.675,11.124,24.8,24.798,24.8
			c13.675,0,24.8-11.125,24.8-24.8C245.418,126.818,234.292,115.694,220.617,115.694z M220.617,150.291
			c-5.402,0-9.796-4.396-9.796-9.798s4.395-9.796,9.796-9.796c5.403,0,9.798,4.395,9.798,9.796
			C230.416,145.896,226.02,150.291,220.617,150.291z"/>
	</g>
</g>
<g>
	<g>
		<path d="M291.383,115.694c-13.675,0-24.8,11.125-24.8,24.798c0,13.675,11.125,24.8,24.8,24.8c13.674,0,24.798-11.125,24.798-24.8
			C316.181,126.818,305.057,115.694,291.383,115.694z M291.383,150.291c-5.403,0-9.798-4.396-9.798-9.798s4.395-9.796,9.798-9.796
			c5.402,0,9.796,4.395,9.796,9.796C301.179,145.896,296.785,150.291,291.383,150.291z"/>
	</g>
</g>
<g>
	<g>
		<path d="M295.971,177.121h-13.631h-26.341h-26.34h-13.631c-11.144,0-20.21,9.065-20.21,20.21v9.53
			c0,11.144,9.065,20.21,20.21,20.21c19.126,0,63.6,0,79.943,0c11.144,0,20.21-9.065,20.21-20.21v-9.53
			C316.181,186.186,307.116,177.121,295.971,177.121z M222.159,212.069h-6.13c-2.871,0-5.208-2.336-5.208-5.208v-9.53
			c0-2.871,2.336-5.208,5.208-5.208h6.13V212.069z M248.498,212.069H237.16v-19.946h11.338V212.069z M274.839,212.069H263.5v-19.946
			h11.339V212.069z M301.179,206.861c0,2.871-2.336,5.208-5.208,5.208h-6.13v-19.946h6.13c2.871,0,5.208,2.336,5.208,5.208V206.861z
			"/>
	</g>
</g>
<g>
	<g>
		<path d="M510.995,241.062l-23.601-40.874c-2.071-3.588-6.661-4.816-10.246-2.745c-3.588,2.071-4.817,6.659-2.745,10.246
			l21.436,37.124l-15.937,27.604c-5.439-6.42-13.55-10.505-22.602-10.505c-9.053,0-17.164,4.086-22.603,10.505l-15.937-27.604
			l21.436-37.124c2.071-3.588,0.842-8.175-2.745-10.246c-3.586-2.07-8.175-0.843-10.246,2.745l-23.601,40.874
			c-1.34,2.32-1.34,5.181,0,7.501c25.22,43.682,23.63,40.996,24.108,41.633c-0.186,4.02,0.448,7.97,1.825,11.661
			c-0.988,1.94,0.043-0.749-13.762,38.451h-29.876c-4.081-4.005-9.222-6.927-14.96-8.306v-1.117
			c0-27.832-22.644-50.476-50.476-50.476h-37.308v-16.012h27.69c21.146,0,40.976-16.419,40.976-42.428h25.298
			c11.144,0,20.21-9.065,20.21-20.21v-15.682c0-4.144-3.357-7.501-7.501-7.501s-7.501,3.357-7.501,7.501v15.682
			c0,2.871-2.336,5.208-5.208,5.208H351.82v-76.783h25.298c2.871,0,5.208,2.336,5.208,5.208v15.682c0,4.144,3.357,7.501,7.501,7.501
			s7.501-3.357,7.501-7.501v-15.682c0-11.144-9.065-20.21-20.21-20.21h-2.545v-66.71c9.312-3.139,16.039-11.949,16.039-22.307
			c0-12.979-10.559-23.538-23.538-23.538c-12.981,0-23.54,10.559-23.54,23.538c0,10.355,6.727,19.165,16.037,22.306v66.712h-7.751
			c0-25.998-19.828-42.428-40.976-42.428H201.156c-22.595,0-40.976,18.381-40.976,40.976v1.451h-25.298
			c-11.144,0-20.21,9.065-20.21,20.21v66.368c0,11.145,9.065,20.21,20.21,20.21h25.298v1.451c0,22.595,18.381,40.976,40.976,40.976
			h27.69v16.012h-37.308c-26.508,0-50.476,20.914-50.476,51.593c-5.738,1.379-10.879,4.302-14.96,8.306H96.226l-12.638-35.888
			c-0.311-0.881-0.7-1.73-1.124-2.564c1.379-3.697,2.011-7.647,1.825-11.661c0.478-0.636-1.114,2.054,24.107-41.633
			c1.34-2.32,1.34-5.181,0-7.501l-23.599-40.874c-2.071-3.589-6.661-4.816-10.246-2.745c-3.587,2.071-4.817,6.659-2.745,10.246
			l21.434,37.124l-15.936,27.604c-5.439-6.42-13.551-10.505-22.603-10.505s-17.164,4.087-22.603,10.505l-15.936-27.604
			l21.434-37.124c2.071-3.588,0.842-8.175-2.745-10.246c-3.589-2.07-8.176-0.843-10.246,2.745L1.005,241.062
			c-1.34,2.32-1.34,5.181,0,7.501l23.599,40.876c0.154,0.267,0.328,0.517,0.51,0.759c-0.573,12.359,6.59,23.36,17.275,28.265
			c0.329,1-1.92-5.412,17.888,50.844c3.062,8.694,11.313,14.536,20.534,14.536h43.208c4.345,5.157,10.279,8.927,17.042,10.552
			v57.887h-1.182c-11.874,0-21.534,9.658-21.534,21.53v14.031c0,11.872,9.66,21.53,21.534,21.53h98.618
			c4.144,0,7.501-3.358,7.501-7.501c0-4.144-3.357-7.501-7.501-7.501H139.88c-3.602,0-6.532-2.928-6.532-6.528v-14.031
			c0-3.6,2.93-6.528,6.532-6.528c6.509,0,196.609,0,223.557,0h8.685c3.598,0,6.526,2.928,6.526,6.528v14.031
			c0,3.6-2.928,6.528-6.526,6.528h-98.619c-4.144,0-7.501,3.357-7.501,7.501c0,4.143,3.357,7.501,7.501,7.501h98.619
			c11.871,0,21.528-9.658,21.528-21.53v-14.031c0-10.927-8.318-21.53-22.712-21.53v-57.887c6.763-1.625,12.698-5.396,17.042-10.552
			h43.208c9.22,0,17.472-5.842,20.534-14.536c19.804-56.24,17.564-49.858,17.889-50.845c10.649-4.888,17.848-15.863,17.274-28.267
			c0.478-0.636-1.114,2.053,24.108-41.633C512.335,246.243,512.335,243.384,510.995,241.062z M358.536,26.165
			c0-4.707,3.831-8.536,8.538-8.536c4.707,0,8.536,3.829,8.536,8.536c0,4.707-3.83,8.536-8.536,8.536
			C362.366,34.701,358.536,30.871,358.536,26.165z M160.179,206.968h-25.298c-2.871,0-5.208-2.336-5.208-5.208v-66.368
			c0-2.871,2.336-5.208,5.208-5.208h25.298V206.968z M40.081,291.532c0-8.061,6.559-14.619,14.619-14.619
			c15.346,0,20.477,21.104,6.239,27.82C51.371,309.282,40.081,302.289,40.081,291.532z M116.971,368.841H80.812
			c-2.866,0-5.433-1.815-6.384-4.518l-15.317-43.501c4.627-0.693,8.902-2.464,12.573-5.043l12.156,34.521
			c1.057,3.001,3.894,5.01,7.075,5.01h26.543C116.391,359.481,116.155,364.249,116.971,368.841z M141.062,378.553
			c-12.769-6.265-12.731-24.461,0-30.706V378.553z M201.156,249.396c-14.322,0-25.974-11.652-25.974-25.974v-109.69
			c0-14.322,11.651-25.974,25.974-25.974h109.689c14.322,0,25.974,11.652,25.974,25.974c0,10.907,0,98.755,0,109.691
			c0,14.322-11.652,25.974-25.974,25.974C303.493,249.396,208.226,249.396,201.156,249.396z M268.153,264.397v16.012h-24.306
			v-16.012H268.153z M156.064,330.885c0-19.561,15.913-35.474,35.474-35.474c1.546,0,109.795,0,128.925,0
			c19.561,0,35.474,15.913,35.474,35.474v1.219c-6.93,0-137.556,0-144.552,0h-55.32V330.885z M284.791,347.106l-27.435,33.548
			c-0.455,0.557-0.949,0.876-1.355,0.876c-0.409,0-0.904-0.319-1.36-0.877l-27.434-33.547H284.791z M355.936,452.282H156.064
			c0-9.418,0-93.196,0-105.176h51.764l35.2,43.045c3.316,4.056,8.045,6.382,12.972,6.382c0.001,0,0.001,0,0.002,0
			c4.927,0,9.653-2.326,12.97-6.382l35.2-43.045h51.766C355.936,359.158,355.936,442.872,355.936,452.282z M370.938,378.553v-30.706
			C383.474,353.995,383.838,372.223,370.938,378.553z M437.572,364.324c-0.951,2.701-3.517,4.518-6.384,4.518h-36.159
			c0.814-4.584,0.586-9.307-0.486-13.531h26.543c3.182,0,6.019-2.008,7.075-5.01l12.156-34.521c3.671,2.578,7.946,4.35,12.573,5.043
			L437.572,364.324z M446.606,301.469c-8.658-9.302-2.076-24.556,10.692-24.556c8.061,0,14.619,6.559,14.619,14.619
			C471.918,304.847,455.51,311.091,446.606,301.469z"/>
	</g>
</g>
<g>
</g>
<g>
</g>
<g>
</g>
<g>
</g>
<g>
</g>
<g>
</g>
<g>
</g>
<g>
</g>
<g>
</g>
<g>
</g>
<g>
</g>
<g>
</g>
<g>
</g>
<g>
</g>
<g>
</g>
</svg>
