<?xml version="1.0" encoding="iso-8859-1"?>
<!-- Generator: Adobe Illustrator 19.0.0, SVG Export Plug-In . SVG Version: 6.00 Build 0)  -->
<svg version="1.1" id="Capa_1" xmlns="http://www.w3.org/2000/svg" xmlns:xlink="http://www.w3.org/1999/xlink" x="0px" y="0px"
	 viewBox="0 0 512.001 512.001" style="enable-background:new 0 0 512.001 512.001;" xml:space="preserve">
<g>
	<g>
		<path d="M178.89,45.483c10.752,0,19.501-8.748,19.501-19.501v-6.482C198.39,8.748,189.642,0,178.89,0h-48.002
			c-10.752,0-19.501,8.748-19.501,19.501v6.483c0,10.752,8.748,19.501,19.501,19.501h16.5v56.719h-16.5
			c-10.752,0-19.501,8.748-19.501,19.501v6.482c0.002,9.599,6.98,17.582,16.126,19.188v8.23c0,7.336,2.783,14.079,7.363,19.199
			c-10.643,6.683-17.737,18.519-17.737,31.986c0,10.633,4.521,20.83,12.403,27.975c3.069,2.782,7.813,2.549,10.594-0.52
			c2.782-3.069,2.549-7.813-0.52-10.594c-4.752-4.308-7.478-10.453-7.478-16.861c0-11.745,8.948-21.441,20.386-22.628
			c0.618,0.082,1.24,0.15,1.87,0.192c0.165,0.011,0.329,0.017,0.494,0.017c0.165,0,0.329-0.006,0.494-0.017
			c0.63-0.042,1.253-0.111,1.87-0.192c11.438,1.187,20.388,10.881,20.388,22.628c0,6.407-2.726,12.553-7.477,16.861
			c-3.068,2.781-3.302,7.524-0.52,10.594c1.48,1.633,3.516,2.463,5.558,2.463c1.797,0,3.6-0.642,5.035-1.943
			c7.883-7.145,12.403-17.341,12.403-27.975c0-13.468-7.095-25.305-17.738-31.987c4.58-5.119,7.363-11.861,7.363-19.198v-8.229
			c9.145-1.606,16.125-9.589,16.125-19.189v-6.482c0-10.752-8.748-19.501-19.501-19.501h-16.501v-56.72H178.89z M167.267,155.605
			c0,6.539-4.601,12.094-10.796,13.474c-0.525-0.021-1.051-0.04-1.58-0.04c-0.53,0-1.057,0.019-1.581,0.04
			c-6.194-1.38-10.796-6.935-10.796-13.474v-7.917h24.754V155.605z M178.892,117.204c2.482,0,4.5,2.019,4.5,4.5v6.482
			c0,2.481-2.018,4.5-4.5,4.5h-4.124c-6.699,0-37.209,0-43.877,0c-2.481,0-4.5-2.019-4.5-4.5v-6.482c0-2.481,2.019-4.5,4.5-4.5
			H178.892z M130.89,30.484c-2.481,0-4.5-2.019-4.5-4.5v-6.483c0-2.481,2.019-4.5,4.5-4.5h48.002c2.482,0,4.5,2.019,4.5,4.5v6.483
			c0,2.481-2.018,4.5-4.5,4.5H130.89z"/>
	</g>
</g>
<g>
	<g>
		<path d="M381.111,45.483c10.752,0,19.501-8.748,19.501-19.501v-6.482C400.612,8.748,391.863,0,381.111,0h-48.002
			c-10.752,0-19.501,8.748-19.501,19.501v6.483c0,10.752,8.748,19.501,19.501,19.501h16.501v56.719h-16.501
			c-10.752,0-19.501,8.748-19.501,19.501v6.482c0,9.599,6.978,17.582,16.124,19.188v8.23c0,12.685,8.306,23.609,19.877,27.394
			v10.615l-5.619,3.247c-7.444,4.301-2.858,15.94,5.619,13.757v5.332l-5.619,3.246c-3.587,2.072-4.815,6.659-2.742,10.246
			c1.39,2.405,3.91,3.749,6.501,3.749c0.621,0,1.246-0.08,1.86-0.238v3.754c0,4.143,3.357,7.5,7.5,7.5s7.5-3.357,7.5-7.5v-12.1
			l5.619-3.246c3.587-2.072,4.814-6.659,2.742-10.246c-1.723-2.982-5.183-4.325-8.361-3.506v-5.336l5.619-3.247
			c3.587-2.072,4.814-6.659,2.742-10.246c-1.723-2.982-5.183-4.325-8.361-3.506v-2.274c11.57-3.784,19.878-14.708,19.878-27.394
			v-8.229c9.146-1.606,16.125-9.589,16.125-19.189v-6.483c0-10.752-8.748-19.501-19.501-19.501h-16.5v-56.72H381.111z
			 M357.109,169.345c-6.979-0.713-12.376-6.655-12.376-13.74v-7.917h24.754v7.917h0C369.487,162.69,364.089,168.632,357.109,169.345
			z M381.111,117.204c2.482,0,4.5,2.019,4.5,4.5v6.482c0,2.481-2.018,4.5-4.5,4.5c-11.128,0-36.877,0-48.002,0
			c-2.481,0-4.5-2.019-4.5-4.5v-6.482c0-2.481,2.019-4.5,4.5-4.5H381.111z M333.109,30.484c-2.481,0-4.5-2.019-4.5-4.5v-6.483
			c0-2.481,2.019-4.5,4.5-4.5h48.002c2.482,0,4.5,2.019,4.5,4.5v6.483c0,2.481-2.018,4.5-4.5,4.5H333.109z"/>
	</g>
</g>
<g>
	<g>
		<path d="M445.104,378.228h-26.081c0.214-1.141,0.338-2.314,0.338-3.516V303.36c0-10.752-8.748-19.501-19.501-19.501H375.61
			h-39.258h-21.994c-10.752,0-19.501,8.748-19.501,19.501v71.351c0,1.202,0.124,2.375,0.338,3.516h-21.695
			c-4.142,0-7.5,3.358-7.5,7.5c0,4.142,3.358,7.5,7.5,7.5h171.603c28.611,0,51.889,23.276,51.889,51.886
			c0,28.61-23.277,51.887-51.889,51.887H66.894c-28.61,0-51.886-23.276-51.886-51.887c0-28.61,23.276-51.886,51.886-51.886H238.5
			c4.142,0,7.5-3.358,7.5-7.5c0-4.142-3.358-7.5-7.5-7.5h-21.695c0.214-1.141,0.338-2.314,0.338-3.516V303.36
			c0-10.752-8.748-19.501-19.501-19.501h-24.251h-39.258h-21.994c-10.752,0-19.501,8.748-19.501,19.501v71.351
			c0,1.202,0.124,2.375,0.338,3.516H66.894c-36.881,0-66.886,30.005-66.886,66.886s30.005,66.887,66.886,66.887h378.21
			c36.882,0,66.889-30.005,66.889-66.887C511.993,408.233,481.986,378.228,445.104,378.228z M343.852,298.861h24.258v33.124
			l-8.506-4.69c-2.256-1.244-4.988-1.244-7.244,0l-8.507,4.691V298.861z M404.361,374.712c0,1.43-0.683,2.691-1.726,3.516h-91.052
			c-1.042-0.825-1.725-2.086-1.725-3.516V303.36c0-2.482,2.019-4.5,4.5-4.5h14.493v45.825c0,2.653,1.401,5.109,3.686,6.458
			c2.285,1.351,5.111,1.39,7.436,0.109l16.008-8.827l16.006,8.827c1.129,0.622,2.376,0.933,3.622,0.933
			c1.319,0,2.639-0.348,3.813-1.042c2.285-1.349,3.687-3.805,3.687-6.458V298.86h16.751c2.481,0,4.5,2.018,4.5,4.5V374.712z
			 M141.633,298.861h24.258v33.124l-8.506-4.69c-2.256-1.244-4.988-1.244-7.244,0l-8.507,4.691V298.861z M107.639,303.36
			c0-2.482,2.019-4.5,4.5-4.5h14.493v45.825c0,2.653,1.401,5.109,3.687,6.458c2.284,1.351,5.111,1.39,7.436,0.109l16.008-8.827
			l16.007,8.827c1.129,0.622,2.376,0.933,3.622,0.933c1.319,0,2.639-0.348,3.814-1.042c2.285-1.349,3.686-3.805,3.686-6.458V298.86
			h16.751c2.482,0,4.5,2.018,4.5,4.5v71.351c0,1.43-0.683,2.691-1.726,3.516h-91.052c-1.043-0.825-1.726-2.086-1.726-3.516V303.36z"
			/>
	</g>
</g>
<g>
	<g>
		<path d="M445.106,411.77H66.894c-18.385,0-33.341,14.958-33.341,33.345c0,18.385,14.956,33.342,33.341,33.342h270.609
			c4.142,0,7.5-3.358,7.5-7.5c0-4.142-3.358-7.5-7.5-7.5H66.894c-10.113,0-18.341-8.228-18.341-18.342
			c0-10.115,8.227-18.345,18.341-18.345h378.212c10.114,0,18.343,8.229,18.343,18.345c0,10.114-8.228,18.342-18.343,18.342h-72.602
			c-4.142,0-7.5,3.358-7.5,7.5c0,4.142,3.358,7.5,7.5,7.5h72.602c18.386,0,33.343-14.957,33.343-33.342
			C478.449,426.728,463.492,411.77,445.106,411.77z"/>
	</g>
</g>
<g>
</g>
<g>
</g>
<g>
</g>
<g>
</g>
<g>
</g>
<g>
</g>
<g>
</g>
<g>
</g>
<g>
</g>
<g>
</g>
<g>
</g>
<g>
</g>
<g>
</g>
<g>
</g>
<g>
</g>
</svg>
