<?xml version="1.0" encoding="iso-8859-1"?>
<!-- Generator: Adobe Illustrator 19.0.0, SVG Export Plug-In . SVG Version: 6.00 Build 0)  -->
<svg version="1.1" id="Capa_1" xmlns="http://www.w3.org/2000/svg" xmlns:xlink="http://www.w3.org/1999/xlink" x="0px" y="0px"
	 viewBox="0 0 511.999 511.999" style="enable-background:new 0 0 511.999 511.999;" xml:space="preserve">
<g>
	<g>
		<path d="M201.933,83.156c-19.576,0-35.502,15.926-35.502,35.502c0,19.576,15.926,35.502,35.502,35.502
			s35.502-15.926,35.502-35.502S221.509,83.156,201.933,83.156z M201.933,139.159c-11.305,0-20.501-9.197-20.501-20.501
			s9.197-20.501,20.501-20.501s20.501,9.197,20.501,20.501S213.238,139.159,201.933,139.159z"/>
	</g>
</g>
<g>
	<g>
		<path d="M310.067,83.156c-19.576,0-35.502,15.926-35.502,35.502s15.926,35.502,35.502,35.502
			c19.576,0,35.502-15.926,35.502-35.502S329.643,83.156,310.067,83.156z M310.067,139.159c-11.305,0-20.501-9.197-20.501-20.501
			s9.197-20.501,20.501-20.501s20.501,9.197,20.501,20.501S321.371,139.159,310.067,139.159z"/>
	</g>
</g>
<g>
	<g>
		<path d="M391.188,380.168c-4.109-0.565-7.887,2.31-8.448,6.414c-8.618,62.947-63.104,110.416-126.738,110.416
			c-92.657,0-154.808-96.111-116.706-180.532c19.727,6.485,43.202,11.131,68.804,13.702c1.964,4.325,1.256,3.027,34.111,35.882
			c7.601,7.602,19.975,7.604,27.58,0c32.851-32.852,32.146-31.556,34.11-35.882c25.567-2.567,49.011-7.203,68.723-13.675
			c5.282,11.696,8.812,24.178,10.368,37.007c0.498,4.113,4.258,7.04,8.349,6.542c4.112-0.499,7.042-4.236,6.543-8.349
			c-3.73-30.773-17.787-61.02-41.617-84.484c-18.275-20.837-182.707-20.422-200.552,0.021
			c-27.217,26.801-42.653,62.817-42.653,101.829c0,78.817,64.122,142.939,142.939,142.939c34.76,0,68.264-12.628,94.339-35.557
			c25.834-22.716,42.618-53.907,47.262-87.825C398.163,384.512,395.291,380.73,391.188,380.168z M256,356.747
			c-2.56,0-1.334,0.544-26.76-24.88c17.653,0.964,35.866,0.963,53.519,0C257.348,357.279,258.564,356.747,256,356.747z M337.095,274
			c-35.031,9.327-125.758,9.71-162.191,0C210.849,264.445,301.125,264.438,337.095,274z M160.191,284.287
			c28.256,16.135,164.529,15.508,191.615,0.002c5.061,5.726,9.708,12.059,13.727,18.722c-61.556,19.3-157.519,19.311-219.103-0.012
			C150.44,296.355,155.04,290.101,160.191,284.287z"/>
	</g>
</g>
<g>
	<g>
		<path d="M452.564,75.489h-24.799C409.988,31.288,366.678,0,316.193,0H195.807c-50.485,0-93.795,31.288-111.573,75.489H59.435
			c-10.753,0-19.501,8.749-19.501,19.501v47.336c0,10.753,8.749,19.501,19.501,19.501h23.601
			c16.969,45.828,61.115,78.581,112.771,78.581h120.386c51.655,0,95.801-32.753,112.77-78.581h23.601
			c10.753,0,19.501-8.749,19.501-19.501V94.99C472.066,84.237,463.317,75.489,452.564,75.489z M78.578,146.826H59.435
			c-2.439,0-4.5-2.061-4.5-4.5V94.99c0-2.439,2.061-4.5,4.5-4.5h19.887C74.658,108.76,74.365,128.264,78.578,146.826z
			 M421.296,124.651c-2.362,55.896-48.511,100.757-105.102,100.757H195.807c-46.74,0-86.451-30.642-100.119-72.889
			c-0.04-0.159-0.072-0.32-0.122-0.477C74.04,84.789,124.425,15.001,195.807,15.001h120.386
			C376.2,15.001,423.779,65.222,421.296,124.651z M457.065,142.326c0,2.439-2.061,4.5-4.5,4.5H433.42
			c4.183-18.431,3.954-37.928-0.743-56.336h19.887c2.439,0,4.5,2.061,4.5,4.5V142.326z"/>
	</g>
</g>
<g>
	<g>
		<path d="M311.198,33.696h-37.696c-4.143,0-7.5,3.358-7.5,7.5c0,4.142,3.357,7.5,7.5,7.5h37.696
			c39.429,0,71.506,32.078,71.506,71.507c0,39.428-32.077,71.506-71.506,71.506H200.802c-39.429,0-71.506-32.078-71.506-71.506
			s32.078-71.506,71.506-71.506h37.696c4.142,0,7.5-3.358,7.5-7.5c0-4.142-3.358-7.5-7.5-7.5h-37.696
			c-47.701,0-86.507,38.807-86.507,86.508c0,47.7,38.807,86.507,86.507,86.507h110.396c47.7,0,86.507-38.807,86.507-86.507
			C397.705,72.505,358.898,33.696,311.198,33.696z"/>
	</g>
</g>
<g>
</g>
<g>
</g>
<g>
</g>
<g>
</g>
<g>
</g>
<g>
</g>
<g>
</g>
<g>
</g>
<g>
</g>
<g>
</g>
<g>
</g>
<g>
</g>
<g>
</g>
<g>
</g>
<g>
</g>
</svg>
