<?xml version="1.0" encoding="iso-8859-1"?>
<!-- Generator: Adobe Illustrator 19.0.0, SVG Export Plug-In . SVG Version: 6.00 Build 0)  -->
<svg version="1.1" id="Capa_1" xmlns="http://www.w3.org/2000/svg" xmlns:xlink="http://www.w3.org/1999/xlink" x="0px" y="0px"
	 viewBox="0 0 512.001 512.001" style="enable-background:new 0 0 512.001 512.001;" xml:space="preserve">
<g>
	<g>
		<path d="M393.111,345.086c-32.767,0-59.425,26.658-59.425,59.426s26.658,59.426,59.425,59.426
			c32.768,0,59.427-26.658,59.427-59.426C452.538,371.744,425.879,345.086,393.111,345.086z M393.11,448.939
			c-24.496,0-44.426-19.93-44.426-44.427c0-24.497,19.93-44.427,44.426-44.427c24.498,0,44.428,19.93,44.428,44.427
			C437.538,429.009,417.608,448.939,393.11,448.939z"/>
	</g>
</g>
<g>
	<g>
		<path d="M393.111,370.084c-18.983,0-34.427,15.445-34.427,34.428s15.444,34.428,34.427,34.428
			c18.984,0,34.429-15.444,34.429-34.428C427.54,385.529,412.096,370.084,393.111,370.084z M393.11,423.94
			c-10.712,0-19.428-8.715-19.428-19.429c0-10.712,8.715-19.429,19.428-19.429c10.714,0,19.43,8.716,19.43,19.429
			C412.54,415.224,403.824,423.94,393.11,423.94z"/>
	</g>
</g>
<g>
	<g>
		<path d="M107.356,370.084c-18.983,0-34.427,15.444-34.427,34.428c0,18.983,15.444,34.428,34.427,34.428
			c18.984,0,34.429-15.444,34.429-34.428C141.785,385.529,126.341,370.084,107.356,370.084z M107.356,423.94
			c-10.712,0-19.428-8.715-19.428-19.429c0-10.712,8.715-19.429,19.428-19.429c10.713,0,19.43,8.715,19.43,19.429
			C126.786,415.224,118.07,423.94,107.356,423.94z"/>
	</g>
</g>
<g>
	<g>
		<path d="M107.356,345.086c-32.767,0-59.425,26.658-59.425,59.426s26.658,59.426,59.425,59.426
			c32.768,0,59.427-26.658,59.427-59.426S140.124,345.086,107.356,345.086z M107.356,448.939c-24.496,0-44.426-19.93-44.426-44.427
			c0-24.497,19.93-44.427,44.426-44.427c24.497,0,44.428,19.93,44.428,44.427C151.784,429.009,131.854,448.939,107.356,448.939z"/>
	</g>
</g>
<g>
	<g>
		<circle cx="306.152" cy="272.3" r="7.088"/>
	</g>
</g>
<g>
	<g>
		<circle cx="223.784" cy="206.146" r="7.089"/>
	</g>
</g>
<g>
	<g>
		<path d="M403.331,173.724c-1.009-3.784-4.896-6.026-8.679-5.015c-3.78,1.012-6.024,4.898-5.011,8.681
			c1.013,3.782,4.898,6.026,8.678,5.014C402.101,181.389,404.346,177.506,403.331,173.724z"/>
	</g>
</g>
<g>
	<g>
		<path d="M495.785,97.865c-0.905-0.131-1.825-0.198-2.734-0.198c-9.329,0-17.377,6.972-18.72,16.218l-6.264,43.215l-35.945,3.679
			c-3.797-9.155-10.939-16.378-19.732-20.375l3.283-35.226l43.161-6.656c10.312-1.591,17.412-11.275,15.826-21.596
			c-1.438-9.298-9.299-16.047-18.694-16.047c-0.968,0-1.945,0.075-2.902,0.223l-57.75,8.905c-8.598,1.32-15.166,8.292-15.969,16.952
			l-5.332,57.184c-1.38,0.985-2.698,2.053-3.936,3.215c-3.366-5.868-9.679-9.836-16.914-9.836h-8.769c0-9.915,0-38.558,0-48.27
			c0-48.965-39.837-89.12-89.12-89.12h-10.082c-49.14,0-89.119,39.979-89.119,89.12v48.27h-8.767
			c-10.752,0-19.499,8.747-19.499,19.499v107.851h-8.449c-10.751,0-19.499,8.747-19.499,19.499v13.051
			C44.147,301.285,0,347.837,0,404.512c0,59.197,48.161,107.356,107.356,107.356c45.442,0,84.378-28.382,100.019-68.349h85.716
			c15.641,39.967,54.577,68.349,100.019,68.349c52.184,0,96.642-37.241,105.713-88.552c0.721-4.079-2.001-7.969-6.08-8.69
			c-4.082-0.718-7.97,2.001-8.69,6.08c-7.8,44.133-46.047,76.164-90.942,76.164c-41.106,0-76.691-27.172-88.354-65.445
			c-16.523-54.186,19.423-110.064,74.708-118.26c49.615-7.347,95.878,25.874,104.589,75.154c0.722,4.079,4.615,6.8,8.69,6.081
			c4.079-0.721,6.8-4.612,6.081-8.69c-8.631-48.832-49.321-84.894-98.212-88.269V284.37c0-10.751-8.746-19.499-19.499-19.499h-8.451
			V238.45l21.22-24.37c12.317,0.822,24.793-4.294,32.938-14.699l59.792-6.117c8.65-0.886,15.562-7.514,16.807-16.117l8.383-57.826
			C513.292,109.098,506.236,99.377,495.785,97.865z M394.279,88.349c0.167-1.796,1.528-3.242,3.316-3.517l57.758-8.906
			c0.205-0.031,0.411-0.047,0.613-0.047c1.913,0,3.577,1.436,3.87,3.333c0.33,2.144-1.145,4.157-3.288,4.487l-48.942,7.548
			c-3.399,0.524-6.005,3.292-6.325,6.716l-3.636,39.011c-2.159-0.077-5.09,0.073-7.955,0.584L394.279,88.349z M324.674,63.246
			c4.142,10.811,4.721,19.962,4.721,28.672h-66.273c-2.481,0-4.5-2.019-4.5-4.5V67.745c0-2.481,2.019-4.5,4.5-4.5H324.674z
			 M171.072,89.252c0-40.87,33.251-74.121,74.12-74.121h10.082c25.717,0,48.41,13.171,61.707,33.116h-53.859
			c-10.751,0-19.499,8.747-19.499,19.499v19.673c0,10.752,8.747,19.499,19.499,19.499h66.273v30.605H171.072V89.252z
			 M142.805,157.02c0-2.481,2.018-4.5,4.5-4.5c16.531,0,197.985,0,205.858,0c2.481,0,4.5,2.019,4.5,4.5v27.071
			c-31.774,36.489-19.523,22.42-43.864,50.373c-6.259-1.298-13.236-0.926-19.504,1.096l-9.512-8.099l-22.475-19.137
			c1.545-26.282-23.992-47.596-50.679-38.823c-9.098,3-16.56,9.13-21.299,17.335c-16.639,28.802,8.791,63.942,41.316,57.101
			l10.445,8.86l14.231,12.073H142.805V157.02z M306.324,295.912c-10.694,0.08-20.244-7.108-23.011-17.553
			c-5.787-21.811,19.611-38.627,37.434-24.573C338.083,267.506,328.673,295.722,306.324,295.912z M247.371,236.685
			c0.071-0.055,0.141-0.11,0.21-0.166c4.244-3.325,7.756-7.5,10.286-12.276l22.577,19.224c-4.296,3.814-7.671,8.532-9.895,13.804
			c-7.876-6.681-15.86-13.454-23.743-20.142C246.998,236.986,247.181,236.831,247.371,236.685z M240.041,223.229
			c-13.59,12.904-36.49,5.646-39.597-13.379c-2.298-14.383,8.944-27.318,23.335-27.318
			C244.806,182.532,255.518,208.424,240.041,223.229z M199.651,407.769c-1.771,49.782-42.752,89.1-92.294,89.1
			c-50.925,0-92.357-41.431-92.357-92.357c0-52.401,43.873-94.795,96.923-92.243C161.075,314.677,201.445,356.148,199.651,407.769z
			 M212.015,428.521c1.223-5.34,2.06-11.139,2.441-16.51h71.558c0.384,5.471,1.25,11.316,2.441,16.51H212.015z M381.113,279.871
			c2.481,0,4.5,2.018,4.5,4.499v13.044c-23.033,1.597-45.894,10.693-64.328,27.306h-55.267c-4.142,0-7.499,3.358-7.499,7.499
			s3.358,7.499,7.499,7.499h41.487c-12.619,16.56-20.05,36.266-21.496,57.293H214.46c-1.432-20.995-8.867-40.719-21.497-57.293
			h38.057c4.142,0,7.5-3.358,7.5-7.499s-3.358-7.499-7.5-7.499h-51.837c-18.334-16.523-41.2-25.727-64.326-27.306v-13.043
			c0-2.481,2.019-4.5,4.5-4.5c6.948,0,143.783,0,148.914,0c1.786,8.789,6.523,16.866,13.957,22.732
			c22.644,17.871,56.12,5.445,61.759-22.732C364.776,279.871,360.283,279.871,381.113,279.871z M349.654,264.872l8.008-9.196v9.196
			H349.654z M359.508,230.716c-0.001,0.001-0.001,0.001-0.002,0.002c-20.608,23.665-15.438,17.73-19.73,22.658
			c-2.943-5.21-7.052-9.583-11.504-12.692c29.518-33.899,24.845-28.533,36.947-42.431c3.369,4.646,7.736,8.48,12.783,11.223
			L359.508,230.716z M373.659,181.665c-3.022-11.287,2.694-22.619,12.394-27.292c0.744-0.364,1.539-0.692,2.311-0.972
			c15.31-5.561,31.562,5.593,31.705,22.064C420.167,202.456,380.933,208.819,373.659,181.665z M496.959,117.164l-8.384,57.834
			c-0.258,1.786-1.694,3.163-3.49,3.347l-50.833,5.201c0.556-2.622,0.833-5.298,0.828-7.991l40.335-4.128
			c3.421-0.35,6.166-2.982,6.659-6.385l7.103-49.002c0.308-2.114,2.272-3.653,4.461-3.33c1.059,0.153,1.779,0.679,2.196,1.091
			C496.729,114.69,497.141,115.914,496.959,117.164z"/>
	</g>
</g>
<g>
</g>
<g>
</g>
<g>
</g>
<g>
</g>
<g>
</g>
<g>
</g>
<g>
</g>
<g>
</g>
<g>
</g>
<g>
</g>
<g>
</g>
<g>
</g>
<g>
</g>
<g>
</g>
<g>
</g>
</svg>
